<?xml version="1.0" encoding="UTF-8" standalone="no"?>
<svg
   xmlns:dc="http://purl.org/dc/elements/1.1/"
   xmlns:cc="http://creativecommons.org/ns#"
   xmlns:rdf="http://www.w3.org/1999/02/22-rdf-syntax-ns#"
   xmlns:svg="http://www.w3.org/2000/svg"
   xmlns="http://www.w3.org/2000/svg"
   viewBox="0 0 453.33334 105.33333"
   height="105.33333"
   width="453.33334"
   xml:space="preserve"
   id="svg2"
   version="1.1"><metadata
     id="metadata8"><rdf:RDF><cc:Work
         rdf:about=""><dc:format>image/svg+xml</dc:format><dc:type
           rdf:resource="http://purl.org/dc/dcmitype/StillImage" /></cc:Work></rdf:RDF></metadata><defs
     id="defs6" /><g
     transform="matrix(1.3333333,0,0,-1.3333333,0,105.33333)"
     id="g10"><g
       transform="scale(0.1)"
       id="g12"><path
         id="path14"
         style="fill:#c81d2a;fill-opacity:1;fill-rule:nonzero;stroke:none"
         d="m 321.984,718.309 c 0,0 0.7,-2.911 2.028,-8.891 -2.832,-1.02 -4.407,-1.488 -4.719,-1.488 -3.148,0.242 -5.82,0.875 -8.02,1.746 -4.714,1.812 -10.062,2.691 -16.039,2.617 -8.808,-0.141 -19.035,-1.066 -30.675,-2.777 -26.907,-4.125 -54.832,-9.903 -83.625,-17.246 0,0 -0.629,-0.157 -1.891,-0.469 -0.949,-2.516 -1.5,-3.93 -1.816,-4.246 -5.45,-14.539 -8.372,-22.164 -8.688,-22.789 -0.316,-0.629 -8.051,-17.368 -23.281,-50.297 0,0 -0.633,-1.727 -1.82,-5.188 2.203,-0.004 3.308,-0.008 3.308,-0.008 0.942,0.082 4.953,0.465 11.953,1.399 7.078,0.855 12.352,1.476 15.813,1.863 14.078,1.473 25.871,1.297 35.308,-0.449 5.426,-0.875 10.614,-2.535 15.641,-4.981 8.254,-3.632 12.41,-9.539 12.555,-17.718 0,-0.313 0,-2.516 0.07,-6.606 -2.52,-1.332 -5.195,-1.484 -8.023,-0.613 -7.235,1.82 -16.512,1.832 -27.758,0.125 -20.141,-2.801 -44.528,-7.871 -73.407,-15.219 0,0 -1.886,-0.629 -5.585,-1.957 -1.895,-3.773 -2.758,-5.66 -2.758,-5.66 -15.239,-36.387 -26.6214,-72.07 -34.3089,-107.055 -1.1875,-4.714 -3.8047,-19.418 -7.9336,-43.949 -0.2383,-1.262 -0.3984,-2.832 -0.4023,-4.719 0.0781,-1.886 -0.0821,-3.304 -0.3985,-4.246 -0.5586,-4.718 -0.957,-8.258 -1.2773,-10.457 -0.8711,-3.461 -3,-5.972 -6.461,-7.617 -3.7773,-1.57 -7.2343,-1.012 -10.3789,1.746 -4.4726,4.016 -8.164,7.406 -10.9882,10.242 -6.0508,5.907 -9.8125,14.016 -11.211,24.317 -1.3945,11.644 -0.664,26.113 2.1953,43.41 3.4922,20.203 10.5352,46.695 21.0469,79.555 0,0.312 0.3164,1.179 0.9453,2.593 0.5547,1.414 1.0313,2.438 1.3438,3.067 0,0.312 0,1.097 0.0039,2.359 -3.461,-0.078 -5.1914,-0.074 -5.1914,-0.074 -5.0313,-0.699 -10.6914,-1.395 -16.9883,-2.094 -4.0899,-0.703 -8.8125,-0.457 -14.1563,0.731 -2.1992,0.316 -4.8711,1.5 -8.0156,3.629 -2.5937,1.578 -3.7695,3.468 -3.6875,5.671 0.1641,2.2 -0.8555,4.793 -3.1289,7.946 -1.96484,3.07 -2.27344,6.531 -1.0859,10.383 8.4218,4.785 17.4687,7.918 27.2265,9.316 5.0313,0.387 8.418,0.93 10.3008,1.555 4.0938,1.015 14.2461,3.988 30.5313,8.918 0,0 1.1015,0.464 3.3086,1.488 3.9414,8.172 16.0156,33.633 36.1402,76.383 -0.945,0.629 -2.671,0.472 -5.191,-0.543 -2.754,-0.942 -7.949,-2.899 -15.4219,-5.637 -7.5547,-2.742 -13.457,-4.855 -17.8633,-6.109 -15.6601,-5.633 -27.0703,-8.918 -34.3047,-9.93 -6.5312,-1.402 -11.5625,-1.316 -15.0195,0.258 -1.3398,0.554 -3.5391,1.976 -6.6797,4.105 -1.2578,0.629 -1.7305,1.418 -1.4922,2.36 0.3203,2.515 -1.1719,5.507 -4.3125,8.89 -2.9023,3.074 -3.7617,6.852 -2.5742,11.254 11.8164,11.543 18.1953,17.742 19.0625,18.688 0.9453,0.941 6.8555,7.773 17.6484,20.496 1.5782,1.019 4.0938,0.855 7.5508,-0.328 3.5313,-5.903 4.5391,-11.411 3.0391,-16.442 1.0234,-0.633 2.5937,-0.476 4.7226,0.547 26.5977,11.043 49.2616,19.188 68.0666,24.5 3.461,1.02 7.16,3.527 11.18,7.691 6.601,0.383 11.324,0.454 14.156,0.211 2.828,-0.316 6.293,-0.086 10.383,0.614 17.855,4.062 38.074,7.332 60.648,9.812 17.934,1.856 33.27,2.067 46.242,0.629 8.176,-0.797 15.41,-2.148 21.703,-3.887 2.512,-0.945 5.735,-2.289 9.508,-4.105 6.91,-3.703 11.309,-9.457 12.949,-17.32 z M 72.1445,679.469 c 2.8321,-0.633 5.0352,0.226 6.6094,2.426 -0.6289,-0.313 -1.6523,-0.704 -3.0664,-1.25 -1.418,-0.469 -2.5977,-0.864 -3.543,-1.176 z m 79.5235,-87.977 c 0,0 0,-0.156 0,-0.469 1.574,-0.316 2.434,-0.472 2.594,-0.472 0.156,0 0.711,0.156 1.652,0.465 0,0 0,0.156 0,0.472 -0.629,0 -1.414,0.004 -2.359,0.004 -0.942,0 -1.571,0.004 -1.887,0 z M 48.2891,565.949 c 10.6992,0.137 18.7226,2.324 23.9961,6.489 -13.4532,-3.676 -21.4805,-5.786 -23.9961,-6.489 z M 73.3398,496.07 c 12.2618,42.606 31.7622,88.582 58.4222,138.004 0.316,0.946 0.867,2.199 1.816,3.852 0.945,1.57 1.574,2.512 1.813,2.824 0.004,0.316 -0.469,0.633 -1.414,0.949 -1.813,-2.906 -2.918,-4.476 -3.231,-4.793 -6.781,-9.816 -14.273,-23.488 -22.48,-40.859 C 94.2188,567.207 83.2461,540.961 75.4219,517.301 66.0156,489.789 60.625,463.059 59.0898,436.953 c 0,-0.316 0.1563,-1.73 0.5469,-4.25 0.6289,1.262 1.1797,3.145 1.8164,5.664 2.8633,20.129 6.8242,39.391 11.8867,57.703 z m 73.6832,92.993 c -2.511,1.187 -4.558,1.035 -6.132,-0.618 0,0 -0.157,0 -0.469,0 v 0 c -0.633,0.004 -1.652,-0.074 -3.07,-0.23 -1.414,-0.235 -2.598,-0.309 -3.543,-0.309 2.832,-1.183 5.031,-1.031 6.613,0.539 h 0.469 c 0.625,0.391 1.257,0.547 1.886,0.547 0.629,0 1.34,0 2.125,-0.004 0.789,0.004 1.493,0.078 2.121,0.075 z m 37.399,122.625 c 0.629,0 1.418,0.078 2.363,0.234 0.942,0.234 1.731,0.308 2.36,0.308 0.628,0 1.335,0.157 2.125,0.469 0.785,0.313 1.57,0.703 2.515,1.02 -15.101,0.414 -35.082,-2.934 -59.945,-10.047 -24.86,-7.117 -41.3869,-14.328 -49.422,-21.707 0.9453,0.312 4.1718,1.644 9.8359,3.918 0.9453,0.312 2.5195,1.019 4.6445,1.961 2.2036,1.015 3.9336,1.801 5.1916,2.429 1.89,0.622 5.043,1.797 9.605,3.442 4.563,1.644 7.711,2.738 9.598,3.445 3.148,0.938 6.609,1.953 10.387,2.973 2.754,0.937 6.058,1.797 9.832,2.5 3.461,0.937 6.926,1.953 10.308,2.972 2.203,0.313 5.508,1.012 9.91,2.028 4.723,1.012 7.95,1.637 9.836,2.027 0.942,0 2.122,0.156 3.539,0.465 1.418,0.391 2.754,0.629 4.016,0.785 1.258,0.153 2.356,0.465 3.301,0.778" /><path
         id="path16"
         style="fill:#c81d2a;fill-opacity:1;fill-rule:nonzero;stroke:none"
         d="m 244.375,552.602 c 0,0 0.234,1.101 0.871,3.304 -1.258,1.258 -2.043,1.813 -2.355,1.813 -4.477,4.332 -4.864,8.89 -1.161,13.683 2.129,2.828 4.489,5.106 7.012,6.672 4.016,2.59 7.321,3.766 9.836,3.446 2.516,-0.239 5.5,-1.973 9.035,-5.047 0,-0.317 0.157,-0.625 0.473,-0.946 0.309,-0.312 0.625,-0.629 0.937,-0.941 4.485,-2.762 6.282,-7.719 5.407,-14.953 -0.004,-0.317 -0.403,-3.305 -1.274,-9.039 2.758,2.586 4.176,4 4.176,4.316 4.648,5.731 9.137,10.211 13.469,13.426 4.644,3.531 8.738,4.703 12.195,3.441 0.313,0 2.359,0.231 6.133,0.536 3.535,-2.754 5.262,-4.25 5.262,-4.567 3.144,-1.891 4.476,-4.961 3.918,-9.445 -0.317,-1.887 -0.793,-4.875 -1.508,-8.961 -0.793,-4.09 -1.27,-7.231 -1.508,-9.438 -0.953,-4.398 -1.277,-10.379 -1.211,-17.925 0.383,-6.61 2.652,-11.567 6.816,-15.032 0,0 0.786,-1.023 2.434,-3.23 -2.207,-2.828 -4.957,-3.531 -8.496,-2.031 -11.082,5.207 -18.227,12.062 -21.516,20.484 -1.957,5.586 -2.968,11.723 -3.039,18.328 0,0 -0.074,2.516 -0.144,7.547 -0.942,0.004 -1.887,-0.777 -2.758,-2.43 -4.891,-10.375 -7.652,-16.586 -8.285,-18.465 -7.266,-18.316 -12.239,-30.027 -14.996,-35.132 -0.953,-1.887 -1.739,-3.93 -2.293,-6.133 -0.871,-3.774 -2.219,-9.43 -4.039,-17.059 -1.743,-7.547 -2.93,-12.89 -3.489,-16.035 -1.187,-5.031 -1.195,-8.965 0.137,-11.797 -0.945,-2.203 -2.598,-3.535 -5.113,-3.847 -2.203,-0.075 -4.094,0.402 -5.66,1.347 -2.282,1.496 -3.852,2.602 -4.797,3.235 -4.715,1.816 -7.934,5.671 -9.571,11.652 -1.019,3.383 -1.562,6.687 -1.558,9.832 -1.469,16.043 -0.031,31.613 4.48,46.785 1.262,3.774 5.297,18 12.18,42.606" /><path
         id="path18"
         style="fill:#c81d2a;fill-opacity:1;fill-rule:nonzero;stroke:none"
         d="m 358.043,485.535 c 0,-0.312 -1.023,-1.176 -3.223,-2.43 0.063,-7.234 2.098,-15.339 6.012,-24.39 1.809,1.254 2.758,1.887 2.758,1.887 12.441,10.832 22.137,22.609 29.234,35.339 3.391,5.973 5.918,11.864 7.735,17.528 1.187,5.027 3.632,8.562 7.41,10.445 0,0 1.101,0.547 3.304,1.488 5.735,-4.019 8.321,-10.078 7.754,-18.257 -0.484,-9.125 -2.859,-18.477 -7.121,-27.911 -5.445,-12.336 -12.226,-23.492 -20.265,-33.308 -2.758,-3.535 -6.227,-6.516 -10.239,-9.11 -3.777,-2.586 -8.5,-3.757 -14.32,-3.511 -5.816,0.246 -10.219,2.058 -13.047,5.445 -1.644,1.574 -3.691,2.84 -6.207,3.707 -7.308,3.707 -12.879,10.168 -16.797,19.609 -3.914,9.997 -5.312,20.614 -4.195,31.938 1.68,16.746 5.797,33.57 12.512,50.629 4.261,10.449 9.625,19.488 16.086,27.101 4.015,4.793 8.351,8.008 13.07,9.657 6.609,1.953 11.953,0.922 16.039,-3.094 1.965,-2.129 3.848,-3.863 5.73,-5.125 7.071,-6.145 9.649,-14.957 7.981,-26.277 -0.875,-6.293 -3.008,-12.422 -6.402,-18.473 -5.207,-10.766 -11.747,-20.899 -19.786,-30.481 -4.336,-5.343 -8.984,-9.5 -14.023,-12.406 z m 38.363,-10.281 c 2.442,3.453 3.547,5.969 3.157,7.543 2.207,1.336 3.625,4.004 4.183,8.094 -2.519,-3.536 -3.707,-6.368 -3.711,-8.567 -2.441,-2.511 -3.625,-4.949 -3.629,-7.07 z m -24.039,64.684 c 2.449,7.546 3.324,13.597 2.625,17.925 -4.094,-3.453 -7.484,-8.402 -10.168,-14.691 -4.894,-12.024 -7.746,-23.738 -8.472,-35.063 6.777,8.879 12.144,19.485 16.015,31.829 z m -18,6.32 c 0.317,0.629 0.793,1.492 1.422,2.433 0.551,0.942 0.867,1.731 0.867,2.36 -1.258,-0.629 -1.968,-2.278 -2.289,-4.793" /><path
         id="path20"
         style="fill:#c81d2a;fill-opacity:1;fill-rule:nonzero;stroke:none"
         d="m 464.895,574.918 c 4.332,1.961 7.789,1.168 10.375,-2.219 0,0 1.101,-1.258 3.378,-3.781 -0.871,-3.773 -1.347,-5.656 -1.347,-5.656 -1.504,-5.032 -3.559,-11.949 -6.09,-20.832 -2.531,-8.805 -4.824,-16.903 -6.957,-24.367 -2.059,-7.391 -4.035,-14.227 -5.856,-20.598 -1.5,-4.715 -2.925,-11.637 -4.437,-20.754 -0.555,-1.965 -0.875,-5.27 -0.805,-9.988 -0.164,-7.157 1.789,-12.504 5.953,-15.895 0.317,0 1.258,-1.105 2.829,-3.305 -3.075,-3.144 -6.848,-3.531 -11.329,-1.085 -12.961,7.019 -20.027,17.804 -21.183,32.277 -1.082,10.305 -0.594,20.215 1.465,29.726 3.882,17.922 10.519,35.293 20.062,52.106 1.813,3.148 4.258,6.523 7.41,9.98 1.496,1.649 3.7,3.059 6.532,4.391 z m -1.207,-18.871 c 0.316,0.941 0.867,2.121 1.652,3.535 0.715,1.418 1.265,2.594 1.582,3.539 0,0 -0.16,0 -0.477,-0.004 -0.312,0 -0.465,0.16 -0.465,0.477 -0.32,-0.942 -0.871,-2.047 -1.582,-3.305 -0.789,-1.254 -1.339,-2.351 -1.656,-3.375 0,0 0.078,-0.078 0.238,-0.16 0.157,-0.156 0.391,-0.395 0.708,-0.707 z m 29.941,85.75 c 3.848,-3.383 4.394,-8.106 1.629,-14.156 -1.813,-4.403 -3.473,-8.176 -5.051,-11.395 -3.945,-8.805 -5.766,-15.957 -5.305,-21.23 -3.148,-1.645 -5.664,-1.715 -7.547,-0.145 -6.679,5.91 -9.812,13.074 -9.324,21.567 0.242,5.035 0.879,9.121 1.746,12.261 0.875,4.406 3.004,8.414 6.391,11.871 2.523,2.59 4.723,4.157 6.539,4.864 1.883,0.625 4.719,0.543 8.488,-0.407 1.336,-1.812 2.121,-2.914 2.434,-3.23" /><path
         id="path22"
         style="fill:#c81d2a;fill-opacity:1;fill-rule:nonzero;stroke:none"
         d="m 496.762,491.012 c -1.508,-5.977 -2.379,-11.324 -2.625,-16.039 3.468,2.586 5.277,4.004 5.593,4.316 20.477,19.152 34.672,41.07 42.497,65.676 1.183,3.144 2.683,6.758 4.5,10.926 2.761,5.023 6.855,6.672 12.199,4.855 1.332,-1.891 1.961,-2.754 1.961,-2.754 1.883,-2.523 2.586,-5.512 2.027,-8.969 -2.375,-12.265 -3.965,-21.699 -4.844,-28.382 -1.355,-12.586 -1.843,-22.961 -1.386,-31.145 0,-0.312 0.156,-1.887 0.464,-4.641 1.891,0.629 2.832,0.942 2.832,0.942 11.575,6.43 19.766,15.226 24.661,26.305 7.023,15.48 9.093,31.05 6.367,46.781 -0.699,5.269 -2.344,9.68 -4.856,13.066 -1.644,2.52 -1.961,4.879 -1.089,7.078 4.722,1.957 8.968,1.403 12.816,-1.672 1.887,-1.574 3.457,-3.308 4.789,-5.121 11.848,-18.109 17.164,-35.89 15.801,-53.582 -1.047,-13.523 -4.684,-25.004 -10.832,-34.504 -8.594,-13.671 -20.09,-22.46 -34.489,-26.449 -11.328,-3.285 -20.449,0.031 -27.511,9.953 -0.309,0.317 -2.586,3.149 -6.746,8.426 -2.129,-2.199 -3.231,-3.535 -3.235,-3.851 -6.148,-7.93 -13.312,-15.075 -21.343,-21.512 -4.411,-3.215 -8.743,-5.254 -13.145,-6.27 -7.789,-2.347 -14.313,-0.211 -19.414,6.321 -1.57,2.129 -3.219,3.867 -4.789,5.125 -3.535,3.07 -5.57,7.636 -6.352,13.535 -0.383,4.719 0.332,10.379 2.157,17.062 2.375,10.692 4.906,20.125 7.593,28.375 0.871,3.778 2.532,9.043 4.981,15.879 2.449,6.762 4.105,11.871 4.98,15.406 0.313,0.946 1.821,6.762 4.43,17.454 0,0 0,0.156 0.004,0.472 0,0.313 0,0.629 0,0.946 0.238,3.14 1.5,5.031 3.707,5.734 3.773,1.332 6.762,0.539 8.961,-2.215 1.332,-1.578 2.746,-3.781 4.312,-6.539 1.649,-3.145 1.879,-6.922 0.688,-11.324 -3.004,-11.399 -5.379,-20.203 -7.196,-26.492 -4.195,-16.114 -6.964,-27.118 -8.468,-33.172 z m 8.367,-28.641 c 10.625,7.059 18.664,16.012 24.187,26.781 -11.816,-12.41 -20.007,-21.047 -24.66,-25.836 -0.308,-0.316 -0.312,-0.472 0,-0.472 0,0 0.157,-0.156 0.473,-0.473 z m 81.351,20 c 3.7,3.531 5.833,7.07 6.461,10.527 -4.957,-5.101 -7.636,-7.851 -7.953,-8.168 -0.316,-0.312 -3.386,-3.375 -9.293,-9.101 4.09,1.328 7.633,3.605 10.785,6.742" /><path
         id="path24"
         style="fill:#c81d2a;fill-opacity:1;fill-rule:nonzero;stroke:none"
         d="m 662.109,578.039 c 4.332,1.961 7.789,1.164 10.375,-2.219 0,0 1.102,-1.257 3.379,-3.781 -0.871,-3.773 -1.347,-5.656 -1.347,-5.656 -1.504,-5.031 -3.559,-11.949 -6.09,-20.832 -2.531,-8.805 -4.824,-16.903 -6.957,-24.367 -2.059,-7.391 -4.035,-14.227 -5.856,-20.598 -1.5,-4.715 -2.925,-11.637 -4.437,-20.754 -0.555,-1.965 -0.875,-5.269 -0.805,-9.988 -0.164,-7.156 1.789,-12.504 5.953,-15.895 0.317,0 1.258,-1.105 2.828,-3.308 -3.074,-3.141 -6.847,-3.528 -11.328,-1.082 -12.961,7.019 -20.027,17.804 -21.183,32.277 -1.082,10.305 -0.594,20.215 1.464,29.727 3.883,17.921 10.52,35.292 20.063,52.105 1.812,3.148 4.258,6.523 7.41,9.977 1.496,1.652 3.699,3.062 6.531,4.394 z m -1.207,-18.871 c 0.317,0.941 0.868,2.121 1.653,3.535 0.715,1.418 1.265,2.594 1.582,3.539 0,0 -0.16,0 -0.477,-0.004 -0.312,0 -0.465,0.16 -0.465,0.473 -0.32,-0.938 -0.871,-2.043 -1.582,-3.301 -0.789,-1.254 -1.34,-2.351 -1.656,-3.375 0,0 0.078,-0.082 0.238,-0.16 0.157,-0.156 0.391,-0.395 0.707,-0.707 z m 29.942,85.75 c 3.847,-3.383 4.394,-8.105 1.629,-14.156 -1.813,-4.403 -3.473,-8.176 -5.051,-11.395 -3.945,-8.804 -5.766,-15.957 -5.305,-21.23 -3.148,-1.645 -5.664,-1.719 -7.547,-0.145 -6.679,5.91 -9.812,13.074 -9.324,21.567 0.242,5.035 0.879,9.121 1.746,12.261 0.875,4.407 3.004,8.414 6.391,11.871 2.523,2.59 4.722,4.157 6.539,4.864 1.883,0.625 4.719,0.543 8.488,-0.407 1.336,-1.812 2.121,-2.914 2.434,-3.23" /><path
         id="path26"
         style="fill:#c81d2a;fill-opacity:1;fill-rule:nonzero;stroke:none"
         d="m 780.527,375.633 c 0,0 0.157,-0.785 0.465,-2.363 -1.179,-2.2 -2.91,-2.903 -5.113,-1.954 -8.879,4.258 -14.77,10.168 -17.742,17.641 -2.586,7.555 -4.301,15.66 -5.074,24.465 -0.77,10.07 -0.747,22.969 -0.016,38.699 0,0.313 -0.074,2.672 -0.149,7.074 -2.203,-1.019 -3.382,-1.644 -3.695,-1.957 -0.945,-0.629 -3.308,-2.355 -7.012,-5.101 -3.777,-2.668 -6.531,-4.707 -8.421,-5.965 -4.961,-3.531 -10.469,-5.801 -16.368,-6.813 -5.351,-1.332 -10.855,-0.375 -16.589,3.016 -10.133,6.461 -15.782,16.773 -16.938,30.934 -0.77,10.617 -0.199,23.039 1.871,37.273 4.531,33.023 14.422,69.813 29.508,110.211 10.351,28.137 22.668,56.742 37.031,85.898 3.074,5.735 8.121,14.696 15.141,27.106 3.387,5.344 7.41,10.445 12.058,15.242 4.329,3.844 9.996,5.332 16.914,4.453 4.715,-0.558 8.094,-2.687 9.981,-6.465 0.309,-0.945 1.488,-3.07 3.445,-6.535 1.883,-3.461 3.215,-6.062 3.84,-7.945 1.961,-3.781 2.5,-9.524 1.621,-17.465 -4.14,-35.543 -17.406,-67.133 -39.629,-94.855 -13.004,-15.872 -27.422,-30.868 -43.25,-44.918 -3.07,-2.512 -5.433,-4.317 -7.008,-5.258 -3.386,-1.961 -5.75,-5.106 -6.933,-9.504 -7.125,-26.254 -12.035,-48.27 -14.582,-66.274 -1.746,-11.007 -2.395,-21.386 -1.938,-31.14 0.387,-5.031 1.403,-8.891 2.973,-11.723 1.961,-1.89 4.164,-2.285 6.605,-1.347 5.977,2.035 9.911,3.441 11.719,4.464 10,5.805 20.238,14.282 30.797,25.43 1.574,1.887 2.598,4.082 3.234,6.602 6.668,40.019 21.848,88.203 45.532,144.476 5.84,13.278 13.578,30.172 23.363,50.762 3.078,5.973 7.648,13.754 13.801,23.254 1.261,1.969 4.648,5.894 10.242,11.941 2.758,2.906 6.531,4.078 11.25,3.52 3.144,-0.633 5.656,-2.289 7.621,-5.125 5.414,-8.11 7.129,-16.844 5.07,-26.274 -3.566,-16.117 -8.472,-32.859 -14.867,-50.23 -12.402,-32.852 -28.262,-66.723 -47.59,-101.61 -3.703,-6.285 -10.172,-16.574 -19.394,-30.875 -3.313,-5.105 -5.602,-10.293 -6.789,-15.64 -4.75,-20.836 -7.852,-39.07 -9.133,-54.879 -1.438,-13.84 -1.852,-24.848 -1.469,-33.027 0.531,-11.563 2.324,-20.688 5.617,-27.219 z m -30.539,226.855 c 0.867,0.946 3.387,3.93 7.407,9.035 4.648,4.79 9.296,11.153 13.875,19.086 0,0 0,0.477 0,1.34 -0.942,-0.629 -1.418,-0.941 -1.418,-0.941 -2.204,-2.828 -6.778,-9.035 -13.868,-18.539 -4.336,-5.106 -7.015,-8.324 -7.882,-9.582 0,0 0,-0.473 0,-1.414 1.257,0.625 1.886,1.015 1.886,1.015 z m 26.446,62.086 c 3.949,8.883 7.265,18.942 9.961,30.344 2.691,11.32 3.804,19.969 3.421,25.945 -2.519,-2.824 -3.781,-4.242 -3.781,-4.242 -6.699,-10.84 -10.883,-17.754 -12.379,-20.973 -9.23,-16.742 -17.754,-34.812 -25.648,-54.07 -0.949,-1.883 -6.078,-14.851 -15.477,-38.902 -0.633,-1.887 -0.476,-3.301 0.543,-4.246 18.199,20.414 32.707,42.41 43.36,66.144 z m 25.613,-113.758 c 8.039,10.524 18.297,31.899 30.695,64.122 12.481,32.226 19.36,55.257 20.715,69.093 -2.125,-2.195 -4.566,-6.359 -7.332,-12.336 -10.414,-21.527 -21.469,-49.507 -33.246,-83.933 -2.688,-7.543 -6.004,-17.684 -9.957,-30.262 -0.871,-2.906 -1.192,-5.109 -0.875,-6.684 z m -11.57,187.981 c 0,0 0.156,0.465 0.472,1.41 -4.719,-0.695 -7.633,-3.84 -8.82,-9.5 4.644,4.477 7.402,7.145 8.348,8.09 z m 66.406,-29.68 c -2.758,-1.961 -4.809,-4.476 -5.988,-7.621 2.515,1.57 3.937,2.746 4.406,3.375 0.476,0.629 1.027,2.043 1.582,4.246" /><path
         id="path28"
         style="fill:#c81d2a;fill-opacity:1;fill-rule:nonzero;stroke:none"
         d="m 859.797,581.168 c 4.328,1.961 7.785,1.168 10.375,-2.219 0,0 1.098,-1.258 3.379,-3.781 -0.875,-3.773 -1.352,-5.656 -1.352,-5.656 -1.5,-5.032 -3.554,-11.949 -6.086,-20.832 -2.531,-8.805 -4.824,-16.903 -6.961,-24.367 -2.058,-7.391 -4.031,-14.227 -5.851,-20.598 -1.504,-4.715 -2.93,-11.637 -4.442,-20.754 -0.55,-1.965 -0.871,-5.27 -0.8,-9.988 -0.168,-7.157 1.789,-12.504 5.953,-15.895 0.312,0 1.254,-1.105 2.824,-3.305 -3.07,-3.144 -6.848,-3.531 -11.324,-1.085 -12.965,7.019 -20.028,17.804 -21.184,32.277 -1.086,10.305 -0.598,20.215 1.465,29.726 3.879,17.922 10.52,35.293 20.059,52.106 1.816,3.148 4.257,6.523 7.41,9.98 1.496,1.649 3.699,3.059 6.535,4.391 z m -1.211,-18.871 c 0.316,0.945 0.867,2.121 1.656,3.539 0.711,1.414 1.262,2.59 1.578,3.535 0,0 -0.16,0 -0.472,-0.004 -0.317,0 -0.469,0.16 -0.469,0.477 -0.316,-0.942 -0.871,-2.047 -1.578,-3.305 -0.793,-1.254 -1.34,-2.351 -1.66,-3.375 0,0 0.082,-0.078 0.238,-0.16 0.156,-0.156 0.394,-0.395 0.707,-0.707 z m 29.941,85.75 c 3.852,-3.383 4.395,-8.106 1.633,-14.156 -1.816,-4.403 -3.472,-8.176 -5.055,-11.395 -3.945,-8.805 -5.765,-15.957 -5.3,-21.23 -3.153,-1.645 -5.664,-1.715 -7.551,-0.145 -6.676,5.91 -9.809,13.074 -9.32,21.567 0.242,5.035 0.875,9.121 1.746,12.265 0.875,4.402 3.004,8.41 6.386,11.867 2.524,2.59 4.727,4.157 6.539,4.864 1.887,0.629 4.723,0.543 8.493,-0.407 1.332,-1.812 2.117,-2.914 2.429,-3.23" /><path
         id="path30"
         style="fill:#c81d2a;fill-opacity:1;fill-rule:nonzero;stroke:none"
         d="m 898.664,499.293 c 0,0 0,-0.469 0.078,-1.418 9.992,3.918 25.102,12.781 45.34,26.59 1.887,-0.317 2.828,-0.477 2.828,-0.477 8.18,-2.371 12.024,-7.961 11.535,-16.769 -0.488,-9.121 -0.89,-15.727 -1.132,-19.817 -0.559,-3.457 -1.27,-8.644 -2.149,-15.414 -0.797,-6.758 -1.355,-11.398 -1.676,-13.918 -0.554,-4.402 -0.484,-7.547 0.145,-9.433 0.941,0.078 2.676,-0.082 5.187,-0.403 2.52,-0.238 4.641,-0.711 6.371,-1.269 1.727,-0.633 3.379,-1.578 5.028,-2.762 0.625,-1.57 0.941,-2.515 0.937,-2.828 1.328,-5.668 -0.484,-10.066 -5.449,-13.285 -0.312,0.004 -3.144,-1.488 -8.422,-4.387 -0.312,-0.316 -3.144,-1.57 -8.422,-3.844 -0.945,-3.851 -1.347,-5.738 -1.347,-5.738 -4.746,-19.18 -7.121,-29.32 -7.125,-30.266 -6.321,-20.199 -18.305,-37.957 -36.024,-53.261 -12.129,-10.598 -26.769,-17.258 -44.07,-19.985 -5.274,-0.699 -10.621,-0.14 -16.043,1.68 -8.809,3 -14.223,8.754 -16.254,17.168 -1.016,3.781 -1.797,6.297 -2.422,7.555 -3.605,7.793 -4.066,16.129 -1.301,24.933 1.743,6.055 4.504,11.711 8.207,17.133 8.282,12.645 19.153,23.641 32.536,32.977 14.328,9.648 32.746,18.508 55.25,26.726 0,0 3.937,1.41 11.726,4.387 2.692,12.262 5.313,28.066 7.863,47.254 -2.203,-0.629 -3.304,-1.02 -3.304,-1.02 -0.629,-0.312 -3.383,-1.804 -8.184,-4.547 -4.805,-2.746 -8.504,-4.785 -11.023,-6.039 -4.645,-2.273 -10.153,-4.543 -16.371,-6.894 -5.036,-1.563 -10.223,-0.613 -15.645,3.098 -3.769,2.832 -5.887,6.375 -6.273,10.781 -0.309,3.144 -0.7,5.504 -1.012,7.078 -1.957,4.957 -2.027,10.305 -0.211,15.965 2.059,6.679 4.031,11.554 5.926,14.777 9.465,17.992 22.465,32.52 39,43.426 7.476,4.469 15.109,7.758 22.898,9.715 7.867,2.031 14.789,0.761 20.84,-3.653 6.043,-4.492 9.258,-10.632 9.715,-18.496 0,-1.89 -0.402,-6.605 -1.281,-14.156 0,0 -0.707,-1.019 -2.286,-2.902 -1.25,1.89 -1.96,2.832 -1.96,2.832 -0.313,0.945 -0.547,1.886 -0.7,2.832 -0.16,0.945 -0.39,2.043 -0.547,3.222 -0.152,1.262 -0.234,2.207 -0.23,2.836 -0.703,4.086 -3.137,6.141 -7.145,6.071 -2.832,-0.078 -6.296,-1.016 -10.386,-2.977 -10,-4.859 -18.817,-11.137 -26.617,-18.754 -9.606,-8.949 -17.961,-19.472 -24.981,-31.496 -0.312,-0.312 -0.789,-1.254 -1.418,-2.828 z m 22.172,-98.73 c 0,0 -0.152,0.785 -0.547,2.359 -10.859,-5.805 -24.559,-16.32 -41.019,-31.473 -16.461,-15.148 -26.469,-26.695 -30.184,-34.551 3.461,-0.007 5.352,0.071 5.664,0.071 12.273,2.648 22.664,7.511 31.402,14.574 14.887,12.164 26.473,28.504 34.684,49.02 z m -3.582,18.328 c 0.941,0.312 2.121,0.859 3.535,1.488 1.418,0.629 2.758,1.254 3.938,1.961 1.257,0.625 2.363,1.25 3.304,1.883 0,0.312 -0.074,0.629 -0.23,0.937 -0.16,0.32 -0.238,0.633 -0.235,0.949 -2.519,-0.941 -3.937,-1.488 -4.25,-1.488 -10.628,-4.859 -19.207,-9.484 -25.738,-14.035 -0.949,-0.625 -4.648,-3.297 -11.183,-8.16 -0.317,0.004 -0.473,-0.156 -0.473,-0.473 0,0 0.316,-0.156 0.941,-0.473 5.59,3.532 8.742,5.493 9.371,5.805 3.7,2.274 7.321,4.391 10.707,6.274 1.258,0.629 3.067,1.57 5.426,2.664 2.363,1.179 3.938,2.039 4.887,2.668 z M 863.383,325.23 c 7.238,-0.164 14.004,2.575 20.226,8.309 -6.613,-2.898 -10.152,-4.391 -10.781,-4.391 -0.316,-0.312 -3.465,-1.562 -9.445,-3.918 z m 34.152,158.024 c 2.442,0.941 4.957,1.801 7.477,2.426 -3.774,0.242 -6.293,-0.539 -7.477,-2.426" /><path
         id="path32"
         style="fill:#c81d2a;fill-opacity:1;fill-rule:nonzero;stroke:none"
         d="m 1010.55,495.867 c 0,-0.316 -1.02,-1.176 -3.23,-2.433 0.07,-7.235 2.1,-15.336 6.02,-24.387 1.81,1.25 2.76,1.883 2.76,1.883 12.44,10.832 22.13,22.609 29.23,35.343 3.39,5.969 5.92,11.864 7.74,17.524 1.18,5.027 3.63,8.566 7.41,10.445 0,0 1.1,0.551 3.3,1.492 5.74,-4.019 8.32,-10.082 7.76,-18.261 -0.49,-9.121 -2.86,-18.473 -7.13,-27.907 -5.44,-12.336 -12.22,-23.496 -20.26,-33.312 -2.76,-3.535 -6.23,-6.516 -10.24,-9.106 -3.78,-2.589 -8.5,-3.757 -14.32,-3.515 -5.82,0.246 -10.22,2.058 -13.05,5.445 -1.65,1.574 -3.69,2.84 -6.2,3.711 -7.313,3.703 -12.883,10.164 -16.801,19.606 -3.918,9.996 -5.312,20.613 -4.195,31.937 1.679,16.75 5.797,33.574 12.511,50.629 4.258,10.449 9.625,19.488 16.085,27.105 4.02,4.789 8.35,8.008 13.07,9.653 6.61,1.953 11.95,0.922 16.04,-3.094 1.97,-2.125 3.84,-3.859 5.73,-5.121 7.07,-6.149 9.65,-14.961 7.98,-26.281 -0.87,-6.289 -3.01,-12.418 -6.4,-18.473 -5.21,-10.766 -11.75,-20.898 -19.79,-30.48 -4.33,-5.344 -8.98,-9.5 -14.02,-12.403 z m 38.36,-10.285 c 2.45,3.453 3.55,5.969 3.16,7.547 2.21,1.332 3.63,4 4.18,8.09 -2.52,-3.535 -3.7,-6.364 -3.71,-8.567 -2.44,-2.507 -3.62,-4.945 -3.63,-7.07 z m -24.03,64.684 c 2.44,7.547 3.32,13.597 2.62,17.925 -4.1,-3.453 -7.48,-8.402 -10.17,-14.691 -4.89,-12.023 -7.74,-23.738 -8.47,-35.062 6.78,8.878 12.14,19.488 16.02,31.828 z m -18,6.32 c 0.31,0.629 0.78,1.496 1.42,2.437 0.55,0.942 0.86,1.727 0.86,2.356 -1.25,-0.629 -1.96,-2.277 -2.28,-4.793" /><path
         id="path34"
         style="fill:#c81d2a;fill-opacity:1;fill-rule:nonzero;stroke:none"
         d="m 1460.45,736.328 c 0,0 0.7,-2.906 2.02,-8.887 -2.83,-1.019 -4.4,-1.488 -4.72,-1.488 -3.14,0.242 -5.82,0.875 -8.02,1.746 -4.71,1.813 -10.05,2.688 -16.03,2.617 -8.81,-0.14 -19.04,-1.066 -30.68,-2.781 -26.9,-4.125 -54.83,-9.898 -83.63,-17.246 0,0 -0.62,-0.152 -1.89,-0.465 -0.94,-2.515 -1.5,-3.929 -1.81,-4.246 -5.45,-14.539 -8.37,-22.164 -8.69,-22.789 -0.32,-0.629 -8.05,-17.367 -23.28,-50.297 0,0 -0.63,-1.726 -1.82,-5.187 2.2,-0.004 3.31,-0.008 3.31,-0.008 0.94,0.082 4.95,0.465 11.95,1.398 7.08,0.852 12.35,1.473 15.81,1.864 14.08,1.468 25.88,1.293 35.31,-0.454 5.43,-0.871 10.61,-2.531 15.65,-4.98 8.25,-3.629 12.41,-9.535 12.55,-17.715 0,-0.316 0,-2.515 0.07,-6.605 -2.52,-1.332 -5.19,-1.485 -8.03,-0.614 -7.23,1.821 -16.51,1.832 -27.75,0.125 -20.14,-2.8 -44.53,-7.875 -73.41,-15.222 0,0 -1.89,-0.625 -5.59,-1.953 -1.89,-3.774 -2.75,-5.661 -2.75,-5.661 -15.24,-36.386 -26.63,-72.074 -34.31,-107.054 -1.19,-4.719 -3.81,-19.422 -7.94,-43.949 -0.23,-1.262 -0.39,-2.832 -0.4,-4.719 0.08,-1.887 -0.08,-3.305 -0.4,-4.246 -0.56,-4.719 -0.95,-8.258 -1.27,-10.457 -0.88,-3.461 -3,-5.973 -6.47,-7.617 -3.77,-1.571 -7.23,-1.012 -10.37,1.746 -4.48,4.015 -8.17,7.406 -10.99,10.242 -6.05,5.902 -9.82,14.015 -11.21,24.316 -1.4,11.645 -0.67,26.11 2.19,43.41 3.49,20.203 10.54,46.696 21.05,79.551 0,0.317 0.32,1.18 0.95,2.594 0.55,1.418 1.03,2.441 1.34,3.07 0,0.313 0,1.098 0,2.356 -3.46,-0.075 -5.19,-0.071 -5.19,-0.071 -5.03,-0.699 -10.69,-1.398 -16.99,-2.093 -4.09,-0.704 -8.81,-0.461 -14.15,0.726 -2.2,0.32 -4.88,1.504 -8.02,3.633 -2.59,1.578 -3.77,3.469 -3.69,5.668 0.17,2.203 -0.85,4.797 -3.13,7.949 -1.96,3.07 -2.27,6.528 -1.08,10.383 8.42,4.781 17.47,7.914 27.22,9.316 5.04,0.387 8.42,0.93 10.31,1.555 4.09,1.016 14.24,3.988 30.53,8.914 0,0 1.1,0.469 3.3,1.488 3.95,8.176 16.02,33.633 36.15,76.383 -0.95,0.629 -2.68,0.477 -5.2,-0.539 -2.75,-0.941 -7.94,-2.898 -15.42,-5.64 -7.55,-2.739 -13.45,-4.852 -17.86,-6.106 -15.66,-5.633 -27.07,-8.918 -34.31,-9.93 -6.53,-1.406 -11.56,-1.316 -15.02,0.258 -1.33,0.555 -3.53,1.973 -6.68,4.102 -1.25,0.629 -1.73,1.422 -1.49,2.363 0.32,2.516 -1.17,5.508 -4.31,8.891 -2.9,3.074 -3.76,6.851 -2.57,11.254 11.81,11.539 18.2,17.742 19.06,18.687 0.94,0.941 6.85,7.774 17.65,20.492 1.58,1.024 4.09,0.86 7.55,-0.324 3.53,-5.902 4.54,-11.41 3.04,-16.441 1.02,-0.633 2.59,-0.477 4.72,0.543 26.6,11.046 49.26,19.187 68.07,24.504 3.46,1.019 7.16,3.527 11.18,7.691 6.6,0.383 11.32,0.453 14.15,0.211 2.83,-0.317 6.29,-0.086 10.38,0.613 17.86,4.063 38.08,7.332 60.65,9.809 17.94,1.859 33.27,2.07 46.25,0.633 8.17,-0.797 15.41,-2.149 21.7,-3.887 2.51,-0.949 5.74,-2.293 9.51,-4.106 6.91,-3.707 11.3,-9.457 12.95,-17.324 z m -249.84,-38.836 c 2.83,-0.633 5.03,0.227 6.61,2.426 -0.63,-0.313 -1.65,-0.703 -3.07,-1.254 -1.42,-0.465 -2.6,-0.859 -3.54,-1.172 z m 79.52,-87.976 c 0,0 0,-0.157 0,-0.469 1.57,-0.32 2.44,-0.477 2.59,-0.477 0.16,0 0.71,0.157 1.66,0.469 0,0 0,0.156 0,0.473 -0.63,0 -1.42,0 -2.36,0.004 -0.95,0 -1.57,0.004 -1.89,0 z m -103.38,-25.547 c 10.7,0.14 18.72,2.328 24,6.488 -13.45,-3.672 -21.48,-5.785 -24,-6.488 z m 25.05,-69.875 c 12.26,42.605 31.76,88.578 58.42,138.004 0.32,0.945 0.87,2.199 1.82,3.851 0.94,1.571 1.57,2.512 1.81,2.824 0.01,0.317 -0.47,0.633 -1.41,0.95 -1.81,-2.907 -2.92,-4.477 -3.23,-4.797 -6.78,-9.817 -14.28,-23.488 -22.48,-40.856 -14.05,-28.84 -25.02,-55.086 -32.85,-78.75 -9.4,-27.507 -14.79,-54.238 -16.33,-80.347 0,-0.313 0.16,-1.727 0.55,-4.246 0.63,1.257 1.18,3.144 1.81,5.66 2.87,20.129 6.83,39.39 11.89,57.707 z m 73.69,92.992 c -2.52,1.187 -4.56,1.031 -6.14,-0.617 0,0 -0.15,0 -0.47,0 v 0 c -0.63,0.004 -1.65,-0.078 -3.07,-0.231 -1.41,-0.234 -2.6,-0.308 -3.54,-0.312 2.83,-1.18 5.03,-1.028 6.61,0.543 h 0.47 c 0.63,0.39 1.26,0.547 1.89,0.547 0.63,0 1.34,-0.004 2.12,-0.004 0.79,0 1.5,0.078 2.13,0.074 z m 37.39,122.625 c 0.63,0 1.42,0.074 2.37,0.234 0.94,0.235 1.73,0.309 2.36,0.309 0.62,0 1.33,0.152 2.12,0.469 0.79,0.312 1.57,0.703 2.52,1.015 -15.1,0.418 -35.09,-2.929 -59.95,-10.043 -24.86,-7.117 -41.39,-14.328 -49.42,-21.707 0.94,0.313 4.17,1.645 9.84,3.918 0.94,0.313 2.51,1.02 4.64,1.961 2.2,1.016 3.93,1.797 5.19,2.426 1.9,0.625 5.04,1.801 9.61,3.445 4.56,1.641 7.71,2.739 9.59,3.446 3.16,0.937 6.61,1.953 10.39,2.972 2.75,0.938 6.06,1.793 9.83,2.5 3.47,0.938 6.93,1.953 10.31,2.973 2.2,0.309 5.51,1.012 9.92,2.027 4.72,1.012 7.94,1.637 9.83,2.028 0.94,0 2.12,0.156 3.54,0.464 1.41,0.391 2.75,0.625 4.01,0.782 1.26,0.156 2.36,0.468 3.3,0.781" /><path
         id="path36"
         style="fill:#c81d2a;fill-opacity:1;fill-rule:nonzero;stroke:none"
         d="m 1399.32,502.02 c 0,-0.313 -1.03,-1.176 -3.23,-2.43 0.06,-7.235 2.1,-15.34 6.02,-24.391 1.8,1.254 2.75,1.887 2.75,1.887 12.44,10.828 22.14,22.605 29.23,35.34 3.39,5.969 5.92,11.863 7.74,17.523 1.19,5.031 3.63,8.567 7.41,10.446 0,0 1.1,0.55 3.3,1.492 5.74,-4.02 8.32,-10.078 7.76,-18.262 -0.49,-9.121 -2.86,-18.473 -7.12,-27.906 -5.45,-12.336 -12.23,-23.492 -20.27,-33.309 -2.76,-3.535 -6.22,-6.519 -10.24,-9.109 -3.78,-2.586 -8.49,-3.758 -14.32,-3.516 -5.81,0.246 -10.22,2.063 -13.05,5.445 -1.64,1.579 -3.68,2.84 -6.2,3.711 -7.31,3.707 -12.88,10.164 -16.8,19.61 -3.91,9.992 -5.31,20.613 -4.19,31.937 1.68,16.746 5.8,33.571 12.51,50.625 4.26,10.453 9.62,19.489 16.08,27.106 4.02,4.793 8.35,8.008 13.07,9.656 6.61,1.953 11.96,0.922 16.04,-3.098 1.97,-2.125 3.85,-3.859 5.73,-5.121 7.07,-6.144 9.66,-14.957 7.98,-26.281 -0.87,-6.289 -3,-12.418 -6.39,-18.469 -5.21,-10.765 -11.75,-20.898 -19.79,-30.48 -4.34,-5.344 -8.99,-9.504 -14.02,-12.406 z m 38.36,-10.282 c 2.44,3.45 3.55,5.969 3.15,7.543 2.21,1.332 3.63,4.004 4.19,8.09 -2.52,-3.535 -3.71,-6.363 -3.71,-8.566 -2.45,-2.508 -3.63,-4.946 -3.63,-7.067 z m -24.04,64.684 c 2.45,7.543 3.32,13.598 2.62,17.926 -4.09,-3.453 -7.48,-8.403 -10.17,-14.692 -4.89,-12.027 -7.74,-23.738 -8.47,-35.062 6.78,8.879 12.15,19.484 16.02,31.828 z m -18,6.32 c 0.32,0.629 0.79,1.492 1.42,2.434 0.55,0.941 0.87,1.73 0.87,2.359 -1.26,-0.629 -1.97,-2.281 -2.29,-4.793" /><path
         id="path38"
         style="fill:#c81d2a;fill-opacity:1;fill-rule:nonzero;stroke:none"
         d="m 1548.82,510.406 c -0.4,0.313 -0.87,0.473 -1.5,0.473 -2.12,-3.219 -3.39,-4.789 -3.7,-4.789 -7.01,-10.449 -14.82,-18.93 -23.16,-25.285 -2.83,-1.965 -6.7,-4.395 -11.73,-7.297 -3.39,-1.567 -7.48,-2.11 -12.19,-1.551 -3.46,0.238 -6.69,1.816 -9.52,4.574 -2.9,2.758 -5.1,4.649 -6.67,5.594 -4.79,3.391 -7.85,8.035 -9.18,14.012 -1.01,5.59 -1.24,10.625 -0.68,15.027 2.06,12.027 3.33,18.945 3.97,20.832 1.74,7.231 5.22,19.102 10.35,35.527 0.24,1.262 1.51,4.247 3.64,8.965 2.13,4.793 6.14,6.676 12.2,5.879 1.57,-0.008 2.67,-0.32 3.3,-0.949 0,0 0.63,-0.633 1.88,-2.051 1.26,-1.418 2.12,-2.363 2.44,-2.836 0.31,-0.468 0.86,-1.258 1.64,-2.281 0.79,-1.105 1.34,-2.207 1.49,-3.309 0.15,-1.097 0.08,-2.121 -0.24,-3.062 -0.8,-10.695 -1.13,-16.516 -1.13,-17.457 -0.87,-4.406 -2.06,-10.852 -3.49,-19.422 -1.43,-8.492 -2.31,-13.836 -2.62,-16.039 -0.32,-1.887 -1.04,-7.074 -2.15,-15.566 0,0 0.16,-0.317 0.47,-0.946 2.2,1.254 3.31,1.957 3.31,1.957 8.11,5.731 14.41,12.407 19.06,20.028 5.2,7.621 10.72,16.496 16.56,26.632 9.85,16.817 16.48,27.575 19.87,32.368 3.38,1.019 5.27,1.644 5.59,1.961 5.03,0.695 8.17,-0.645 9.5,-4.106 0.95,-0.633 1.73,-1.344 2.36,-2.129 0.63,-0.707 1.34,-1.656 2.2,-2.754 0.79,-1.105 1.49,-1.816 2.12,-2.129 2.59,-2.757 3.53,-6.375 2.97,-10.777 -1.43,-10.383 -2.23,-16.512 -2.55,-18.402 -0.87,-4.164 -2.21,-10.614 -3.96,-19.418 -1.74,-8.801 -3.09,-15.567 -3.97,-20.364 -2.3,-13.207 -4.05,-25.316 -5.17,-36.324 -0.24,-1.258 -0.32,-7.234 -0.18,-17.926 0.07,-3.461 -0.72,-5.664 -2.29,-6.609 -1.58,-1.016 -4.09,-0.539 -7.55,1.273 -6.05,3.708 -9.58,9.141 -10.59,16.375 -1.72,9.68 -2.49,18.172 -2.24,25.407 0,1.261 0.49,10.222 1.54,26.894" /><path
         id="path40"
         style="fill:#c81d2a;fill-opacity:1;fill-rule:nonzero;stroke:none"
         d="m 1621.06,505.531 c 0,-0.316 -1.02,-1.179 -3.22,-2.433 0.06,-7.235 2.09,-15.34 6.01,-24.391 1.81,1.254 2.76,1.887 2.76,1.887 12.44,10.832 22.13,22.609 29.23,35.344 3.39,5.968 5.92,11.859 7.74,17.523 1.19,5.027 3.63,8.566 7.41,10.445 0,0 1.1,0.551 3.3,1.489 5.74,-4.02 8.32,-10.079 7.76,-18.258 -0.49,-9.125 -2.86,-18.477 -7.12,-27.91 -5.45,-12.336 -12.23,-23.493 -20.27,-33.309 -2.76,-3.535 -6.23,-6.516 -10.24,-9.105 -3.78,-2.59 -8.5,-3.762 -14.32,-3.516 -5.81,0.246 -10.22,2.058 -13.05,5.445 -1.64,1.574 -3.69,2.84 -6.2,3.711 -7.31,3.703 -12.88,10.164 -16.8,19.606 -3.92,9.996 -5.31,20.613 -4.19,31.937 1.68,16.746 5.79,33.57 12.51,50.629 4.26,10.449 9.62,19.488 16.08,27.105 4.02,4.79 8.35,8.008 13.07,9.653 6.61,1.953 11.96,0.922 16.04,-3.094 1.97,-2.129 3.85,-3.863 5.73,-5.125 7.07,-6.144 9.65,-14.957 7.98,-26.277 -0.87,-6.293 -3,-12.418 -6.4,-18.473 -5.21,-10.766 -11.75,-20.898 -19.79,-30.48 -4.33,-5.344 -8.98,-9.5 -14.02,-12.403 z m 38.37,-10.285 c 2.44,3.453 3.54,5.969 3.15,7.547 2.21,1.332 3.63,4 4.18,8.09 -2.52,-3.535 -3.7,-6.363 -3.71,-8.567 -2.44,-2.511 -3.62,-4.949 -3.62,-7.07 z m -24.04,64.684 c 2.45,7.547 3.32,13.597 2.62,17.925 -4.1,-3.453 -7.48,-8.402 -10.17,-14.691 -4.89,-12.023 -7.74,-23.738 -8.47,-35.062 6.78,8.878 12.15,19.484 16.02,31.828 z m -18,6.32 c 0.31,0.629 0.79,1.496 1.42,2.438 0.55,0.937 0.87,1.726 0.87,2.355 -1.26,-0.629 -1.97,-2.277 -2.29,-4.793" /><path
         id="path42"
         style="fill:#c81d2a;fill-opacity:1;fill-rule:nonzero;stroke:none"
         d="m 1706.96,575.754 c 0,0 0.24,1.101 0.87,3.305 -1.26,1.261 -2.04,1.812 -2.35,1.812 -4.48,4.332 -4.87,8.895 -1.16,13.688 2.13,2.824 4.49,5.101 7.01,6.668 4.01,2.589 7.32,3.765 9.83,3.449 2.52,-0.238 5.5,-1.977 9.04,-5.051 0,-0.312 0.16,-0.625 0.47,-0.941 0.31,-0.317 0.63,-0.633 0.94,-0.946 4.48,-2.761 6.28,-7.718 5.41,-14.953 -0.01,-0.316 -0.41,-3.301 -1.28,-9.039 2.76,2.586 4.18,4 4.18,4.317 4.65,5.73 9.13,10.21 13.47,13.425 4.64,3.532 8.74,4.703 12.19,3.442 0.32,0 2.36,0.23 6.13,0.539 3.54,-2.758 5.27,-4.254 5.27,-4.567 3.14,-1.894 4.47,-4.964 3.91,-9.445 -0.31,-1.891 -0.79,-4.875 -1.5,-8.965 -0.8,-4.086 -1.27,-7.23 -1.51,-9.437 -0.95,-4.399 -1.28,-10.375 -1.21,-17.926 0.38,-6.606 2.65,-11.566 6.81,-15.031 0,0 0.79,-1.024 2.44,-3.231 -2.21,-2.828 -4.96,-3.531 -8.5,-2.031 -11.08,5.207 -18.22,12.066 -21.51,20.484 -1.96,5.586 -2.97,11.723 -3.04,18.332 0,0 -0.07,2.512 -0.15,7.543 -0.94,0.004 -1.88,-0.777 -2.76,-2.425 -4.89,-10.375 -7.65,-16.586 -8.28,-18.469 -7.27,-18.317 -12.24,-30.024 -15,-35.133 -0.95,-1.887 -1.73,-3.93 -2.29,-6.133 -0.87,-3.773 -2.22,-9.43 -4.04,-17.058 -1.74,-7.547 -2.93,-12.891 -3.49,-16.036 -1.18,-5.031 -1.19,-8.961 0.14,-11.796 -0.95,-2.2 -2.6,-3.536 -5.11,-3.848 -2.21,-0.074 -4.09,0.402 -5.66,1.351 -2.28,1.497 -3.85,2.598 -4.8,3.231 -4.71,1.816 -7.93,5.676 -9.57,11.652 -1.02,3.383 -1.56,6.692 -1.56,9.832 -1.47,16.047 -0.03,31.617 4.48,46.789 1.27,3.77 5.3,18 12.18,42.602" /><path
         id="path44"
         style="fill:#c81d2a;fill-opacity:1;fill-rule:nonzero;stroke:none"
         d="m 1804.13,511.707 c -1.51,-5.977 -2.38,-11.32 -2.63,-16.039 3.47,2.59 5.28,4.004 5.59,4.316 20.48,19.157 34.68,41.071 42.5,65.676 1.18,3.145 2.68,6.758 4.5,10.926 2.76,5.027 6.86,6.672 12.2,4.855 1.34,-1.89 1.96,-2.753 1.96,-2.753 1.88,-2.52 2.59,-5.512 2.03,-8.969 -2.38,-12.266 -3.97,-21.699 -4.85,-28.383 -1.35,-12.586 -1.84,-22.961 -1.38,-31.145 0,-0.312 0.15,-1.886 0.47,-4.64 1.88,0.629 2.83,0.941 2.83,0.941 11.57,6.43 19.76,15.227 24.65,26.309 7.03,15.476 9.1,31.047 6.37,46.777 -0.7,5.27 -2.34,9.68 -4.85,13.067 -1.65,2.519 -1.97,4.878 -1.09,7.078 4.72,1.957 8.96,1.402 12.81,-1.672 1.89,-1.574 3.46,-3.309 4.79,-5.121 11.85,-18.106 17.17,-35.891 15.8,-53.578 -1.04,-13.528 -4.68,-25.008 -10.83,-34.508 -8.59,-13.672 -20.09,-22.461 -34.49,-26.449 -11.33,-3.286 -20.45,0.031 -27.51,9.953 -0.31,0.316 -2.59,3.152 -6.75,8.425 -2.12,-2.199 -3.23,-3.535 -3.23,-3.847 -6.14,-7.934 -13.31,-15.078 -21.34,-21.516 -4.41,-3.215 -8.75,-5.254 -13.15,-6.269 -7.79,-2.348 -14.31,-0.207 -19.41,6.324 -1.57,2.129 -3.22,3.863 -4.79,5.121 -3.53,3.07 -5.57,7.637 -6.35,13.535 -0.39,4.719 0.33,10.379 2.15,17.063 2.38,10.691 4.91,20.125 7.6,28.375 0.87,3.777 2.53,9.043 4.98,15.882 2.45,6.758 4.1,11.868 4.98,15.407 0.31,0.941 1.82,6.757 4.43,17.453 0,0 0,0.152 0,0.469 0,0.316 0,0.628 0,0.945 0.24,3.14 1.51,5.031 3.71,5.734 3.78,1.332 6.76,0.539 8.96,-2.215 1.34,-1.578 2.75,-3.781 4.31,-6.535 1.65,-3.148 1.88,-6.926 0.69,-11.328 -3,-11.394 -5.38,-20.203 -7.2,-26.492 -4.19,-16.113 -6.96,-27.117 -8.46,-33.172 z m 8.36,-28.641 c 10.63,7.059 18.67,16.012 24.19,26.782 -11.82,-12.41 -20.01,-21.047 -24.66,-25.836 -0.31,-0.313 -0.31,-0.473 0,-0.473 0,0 0.16,-0.156 0.47,-0.473 z m 81.35,20 c 3.7,3.532 5.84,7.071 6.47,10.528 -4.96,-5.102 -7.64,-7.852 -7.96,-8.164 -0.31,-0.317 -3.39,-3.379 -9.29,-9.106 4.09,1.328 7.63,3.606 10.78,6.742" /><path
         id="path46"
         style="fill:#c81d2a;fill-opacity:1;fill-rule:nonzero;stroke:none"
         d="m 1965,510.977 c 0,-0.317 -1.02,-1.18 -3.22,-2.434 0.06,-7.234 2.1,-15.34 6.01,-24.391 1.81,1.254 2.76,1.887 2.76,1.887 12.44,10.832 22.13,22.609 29.24,35.344 3.39,5.969 5.91,11.859 7.73,17.523 1.19,5.028 3.63,8.567 7.41,10.446 0,0 1.1,0.55 3.3,1.488 5.74,-4.02 8.32,-10.078 7.76,-18.258 -0.49,-9.125 -2.86,-18.473 -7.12,-27.91 -5.45,-12.336 -12.23,-23.492 -20.27,-33.309 -2.76,-3.535 -6.22,-6.515 -10.24,-9.105 -3.77,-2.59 -8.5,-3.762 -14.32,-3.516 -5.81,0.246 -10.22,2.059 -13.04,5.446 -1.65,1.574 -3.7,2.839 -6.21,3.71 -7.31,3.704 -12.88,10.165 -16.8,19.606 -3.91,9.996 -5.31,20.613 -4.19,31.937 1.68,16.747 5.79,33.571 12.51,50.629 4.26,10.45 9.62,19.489 16.08,27.106 4.02,4.789 8.36,8.008 13.07,9.652 6.61,1.953 11.96,0.922 16.04,-3.094 1.97,-2.129 3.85,-3.863 5.73,-5.125 7.07,-6.144 9.65,-14.957 7.98,-26.277 -0.87,-6.293 -3,-12.418 -6.4,-18.473 -5.2,-10.765 -11.74,-20.898 -19.78,-30.48 -4.34,-5.344 -8.99,-9.5 -14.03,-12.402 z m 38.37,-10.286 c 2.44,3.454 3.54,5.969 3.15,7.547 2.21,1.332 3.63,4 4.19,8.09 -2.53,-3.535 -3.71,-6.363 -3.71,-8.566 -2.45,-2.508 -3.63,-4.949 -3.63,-7.071 z m -24.04,64.684 c 2.45,7.547 3.32,13.598 2.62,17.926 -4.09,-3.453 -7.48,-8.403 -10.16,-14.692 -4.9,-12.023 -7.75,-23.738 -8.48,-35.062 6.78,8.879 12.15,19.484 16.02,31.828 z m -18,6.32 c 0.31,0.629 0.79,1.496 1.42,2.438 0.55,0.937 0.87,1.726 0.87,2.355 -1.26,-0.629 -1.97,-2.277 -2.29,-4.793" /><path
         id="path48"
         style="fill:#c81d2a;fill-opacity:1;fill-rule:nonzero;stroke:none"
         d="m 2136.65,450.824 c 0.31,-0.312 1.89,-2.285 4.79,-6.062 -2.76,-2.512 -5.9,-2.746 -9.44,-0.614 -6.29,3.707 -11.39,8.04 -15.24,13 -2.27,2.836 -3.99,5.59 -5.33,8.426 -9.96,18.102 -14.02,36.434 -12.1,54.992 0,1.258 1.28,9.59 3.89,25.079 0.01,0.628 0.48,3.773 1.28,9.433 -1.81,-1.332 -3.55,-3.844 -5.05,-7.617 -10.41,-20.902 -17.59,-35.91 -21.54,-45.109 -1.18,-2.512 -4.11,-9.664 -8.61,-21.375 -0.63,-1.571 -1.26,-3.614 -1.82,-6.133 -1.18,-4.403 -1.11,-8.649 0.14,-12.739 -2.12,-1.57 -4.33,-1.8 -6.53,-0.539 -4.16,2.442 -6.83,5.122 -8.16,7.875 -1.02,2.836 -1.65,4.563 -1.96,5.196 -2.9,4.015 -5.33,9.996 -7.29,17.785 -2.34,10.383 -4.13,23.992 -5.36,40.984 -1.53,20.055 -0.72,40.028 2.46,59.922 0.56,5.031 3.18,19.656 7.93,43.949 2.63,14.465 6.9,31.524 12.91,51.094 7.83,26.492 16.12,48.344 25.04,65.395 2.76,5.738 6.3,11.707 10.56,18.07 1.89,2.906 4.33,5.73 7.41,8.641 4.73,4.078 11.1,6.113 19.27,5.863 4.41,-0.242 8.18,-2.215 11.4,-5.914 3.53,-4.094 6.91,-9.215 10.12,-15.434 1.96,-3.461 2.66,-7.238 2.03,-11.324 -1.68,-15.098 -2.8,-24.852 -3.36,-29.254 -4.36,-23.98 -17.38,-49.754 -38.97,-77.398 -0.95,-1.575 -2.52,-3.614 -4.89,-6.207 -2.28,-2.512 -3.94,-4.473 -4.8,-5.735 -2.84,-3.453 -10.72,-13.195 -23.64,-29.054 -2.21,-2.911 -3.55,-5.895 -4.19,-9.043 -2.79,-23.274 -4.64,-46.469 -5.61,-69.434 0.94,0.078 1.73,1.02 2.36,2.91 6.63,16.11 10.19,24.52 10.5,25.145 6.08,14.226 13.72,26.09 23.02,35.672 2.52,2.277 5.28,4.628 8.43,7.218 2.13,1.571 4.17,2.668 6.06,3.375 4.72,1.325 8.1,1.715 10.15,1.321 2.04,-0.477 4.47,-2.528 7.38,-6.305 0.31,-0.316 0.79,-0.945 1.41,-2.051 0.63,-1.098 1.18,-1.808 1.49,-2.121 3.14,-3.387 4.48,-7.797 3.91,-13.141 -1.35,-11.636 -2.55,-20.445 -3.42,-26.421 -0.56,-3.852 -1.51,-9.278 -2.78,-16.352 -1.35,-7.074 -2.46,-13.523 -3.49,-19.34 -1.03,-5.898 -1.67,-11.324 -1.92,-16.355 -1.11,-11.325 -0.11,-22.571 2.86,-33.903 1.96,-7.156 4.85,-12.668 8.7,-16.371 z m -39.59,267.774 c -7.9,-20.594 -14.15,-43.473 -18.83,-68.629 10.72,15.867 20.27,34.648 28.4,56.5 5.77,14.851 10.51,33.094 14.33,54.867 -1.89,-0.625 -3.86,-2.902 -6.07,-6.672 -6.7,-10.453 -12.7,-22.473 -17.83,-36.066 z m 21.04,-24.262 c -5.45,-10.137 -13.18,-24.047 -22.96,-41.801 0.32,-0.316 0.47,-0.472 0.47,-0.472 0.95,1.257 1.42,1.886 1.42,1.886 7.41,10.528 14.27,22.86 20.67,37.086 0,0 0.16,1.102 0.4,3.301 z m -24.99,-130.035 c 0,0 0,-0.946 0,-2.828 4.02,5.73 6.14,9.109 6.46,10.054 4.34,5.969 6.47,9.188 6.47,9.504 -1.58,-1.019 -2.6,-1.961 -3.24,-2.902 -3.07,-4.09 -6.3,-8.723 -9.69,-13.828" /><path
         id="path50"
         style="fill:#c81d2a;fill-opacity:1;fill-rule:nonzero;stroke:none"
         d="m 2157.06,582.879 c 0,0 0.24,1.101 0.87,3.301 -1.25,1.261 -2.04,1.816 -2.36,1.816 -4.47,4.332 -4.86,8.891 -1.15,13.684 2.13,2.828 4.49,5.105 7.01,6.672 4.01,2.589 7.32,3.765 9.84,3.445 2.51,-0.238 5.5,-1.977 9.03,-5.047 0,-0.316 0.16,-0.629 0.47,-0.945 0.31,-0.313 0.62,-0.629 0.94,-0.942 4.48,-2.761 6.28,-7.718 5.4,-14.953 0,-0.316 -0.4,-3.305 -1.27,-9.043 2.76,2.59 4.18,4.004 4.18,4.321 4.64,5.73 9.14,10.21 13.47,13.421 4.64,3.536 8.73,4.707 12.19,3.442 0.32,0 2.36,0.234 6.14,0.539 3.53,-2.754 5.26,-4.25 5.26,-4.567 3.14,-1.894 4.47,-4.96 3.91,-9.445 -0.31,-1.887 -0.79,-4.875 -1.51,-8.961 -0.79,-4.09 -1.27,-7.23 -1.5,-9.437 -0.95,-4.399 -1.28,-10.379 -1.21,-17.926 0.38,-6.609 2.65,-11.566 6.82,-15.031 0,0 0.78,-1.024 2.43,-3.231 -2.21,-2.828 -4.96,-3.531 -8.5,-2.031 -11.08,5.207 -18.23,12.062 -21.51,20.48 -1.96,5.59 -2.97,11.727 -3.04,18.332 0,0 -0.08,2.516 -0.15,7.547 -0.94,0.004 -1.89,-0.777 -2.75,-2.429 -4.9,-10.375 -7.66,-16.586 -8.29,-18.469 -7.26,-18.313 -12.24,-30.024 -15,-35.129 -0.95,-1.887 -1.74,-3.93 -2.29,-6.133 -0.87,-3.773 -2.22,-9.43 -4.04,-17.058 -1.74,-7.547 -2.93,-12.895 -3.49,-16.036 -1.19,-5.031 -1.19,-8.964 0.14,-11.8 -0.94,-2.2 -2.6,-3.532 -5.12,-3.844 -2.2,-0.074 -4.09,0.402 -5.65,1.348 -2.29,1.496 -3.86,2.601 -4.8,3.23 -4.71,1.82 -7.93,5.676 -9.57,11.656 -1.02,3.383 -1.57,6.688 -1.56,9.832 -1.47,16.043 -0.03,31.614 4.48,46.785 1.26,3.774 5.3,18 12.18,42.606" /><path
         id="path52"
         style="fill:#231f20;fill-opacity:1;fill-rule:nonzero;stroke:none"
         d="M 1205.95,64.7461 V 7.18359 H 1002.81 V 349.52 h 70.78 V 64.7461 h 132.36" /><path
         id="path54"
         style="fill:#231f20;fill-opacity:1;fill-rule:nonzero;stroke:none"
         d="m 1568.9,178.469 c 0,-25.008 -4.17,-48.211 -12.58,-69.598 -8.42,-21.3944 -20.29,-39.8749 -35.63,-55.4491 -15.33,-15.5703 -33.81,-27.7578 -55.37,-36.6446 -21.54,-8.88667 -45.45,-13.37105 -71.72,-13.37105 -26.26,0 -50.17,4.48438 -71.72,13.37105 -21.55,8.8868 -40.03,21.0743 -55.45,36.6446 -15.41,15.5742 -27.29,34.0547 -35.7,55.4491 -8.41,21.387 -12.66,44.59 -12.66,69.598 0,25.008 4.25,48.207 12.66,69.523 8.41,21.309 20.29,39.711 35.7,55.285 15.42,15.571 33.9,27.84 55.45,36.727 21.55,8.887 45.46,13.293 71.72,13.293 26.27,0 50.18,-4.406 71.72,-13.293 21.56,-8.887 40.04,-21.156 55.37,-36.805 15.34,-15.652 27.21,-34.133 35.63,-55.445 8.41,-21.313 12.58,-44.434 12.58,-69.285 z m -72.43,0 c 0,17.929 -2.36,34.051 -7.08,48.289 -4.72,14.23 -11.48,26.344 -20.37,36.332 -8.88,9.988 -19.66,17.617 -32.32,22.887 -12.66,5.269 -27.06,7.863 -43.1,7.863 -16.04,0 -30.43,-2.594 -43.17,-7.863 -12.74,-5.27 -23.52,-12.899 -32.4,-22.887 -8.89,-9.988 -15.73,-22.102 -20.45,-36.332 -4.72,-14.238 -7.08,-30.36 -7.08,-48.289 0,-18.09 2.36,-34.207 7.08,-48.446 4.72,-14.234 11.56,-26.343 20.45,-36.2535 8.88,-9.9101 19.66,-17.457 32.4,-22.7304 12.74,-5.2696 27.13,-7.9414 43.17,-7.9414 16.04,0 30.44,2.6718 43.1,7.9414 12.66,5.2734 23.44,12.8203 32.32,22.7304 8.89,9.9105 15.65,22.0195 20.37,36.2535 4.72,14.239 7.08,30.356 7.08,48.446 z M 1375.44,400.48 c 0,-4.562 -0.87,-8.808 -2.68,-12.816 -1.81,-4.012 -4.32,-7.473 -7.55,-10.387 -3.22,-2.906 -7,-5.265 -11.25,-6.996 -4.24,-1.73 -8.73,-2.593 -13.44,-2.593 -4.41,0 -8.57,0.863 -12.51,2.593 -3.93,1.731 -7.39,4.09 -10.46,6.996 -3.07,2.914 -5.5,6.375 -7.31,10.387 -1.81,4.008 -2.75,8.254 -2.75,12.816 0,4.563 0.94,8.965 2.75,13.133 1.81,4.172 4.24,7.785 7.31,10.856 3.07,3.066 6.53,5.504 10.46,7.312 3.94,1.809 8.1,2.672 12.51,2.672 4.71,0 9.2,-0.863 13.44,-2.672 4.25,-1.808 8.03,-4.246 11.25,-7.312 3.23,-3.071 5.74,-6.684 7.55,-10.856 1.81,-4.168 2.68,-8.57 2.68,-13.133 z m 105.69,0 c 0,-4.562 -0.86,-8.808 -2.67,-12.816 -1.81,-4.012 -4.25,-7.473 -7.32,-10.387 -3.06,-2.906 -6.68,-5.265 -10.77,-6.996 -4.09,-1.73 -8.49,-2.593 -13.21,-2.593 -4.72,0 -9.12,0.863 -13.21,2.593 -4.09,1.731 -7.63,4.09 -10.7,6.996 -3.07,2.914 -5.5,6.375 -7.31,10.387 -1.81,4.008 -2.76,8.254 -2.76,12.816 0,4.563 0.95,8.965 2.76,13.133 1.81,4.172 4.24,7.785 7.31,10.856 3.07,3.066 6.61,5.504 10.7,7.312 4.09,1.809 8.49,2.672 13.21,2.672 4.72,0 9.12,-0.863 13.21,-2.672 4.09,-1.808 7.71,-4.246 10.77,-7.312 3.07,-3.071 5.51,-6.684 7.32,-10.856 1.81,-4.168 2.67,-8.57 2.67,-13.133" /><path
         id="path56"
         style="fill:#231f20;fill-opacity:1;fill-rule:nonzero;stroke:none"
         d="M 1913.45,349.52 V 7.18359 h -36.57 c -5.5,0 -10.15,0.94141 -13.92,2.75 -3.78,1.80861 -7.47,4.87501 -11.09,9.28121 L 1681.29,236.273 c 0.48,-5.503 0.87,-10.933 1.1,-16.281 0.24,-5.347 0.32,-10.304 0.32,-14.863 V 7.18359 h -62.53 V 349.52 h 37.28 c 2.99,0 5.59,-0.079 7.71,-0.317 2.12,-0.234 4.01,-0.785 5.74,-1.652 1.73,-0.863 3.38,-2.043 4.96,-3.457 1.57,-1.418 3.3,-3.305 5.18,-5.664 l 171.76,-218 c -0.63,5.976 -1.1,11.797 -1.41,17.383 -0.32,5.578 -0.47,10.847 -0.47,15.882 V 349.52 h 62.52" /><path
         id="path58"
         style="fill:#231f20;fill-opacity:1;fill-rule:nonzero;stroke:none"
         d="m 2055.8,7.18359 h -71.25 V 349.52 h 71.25 V 7.18359" /><path
         id="path60"
         style="fill:#231f20;fill-opacity:1;fill-rule:nonzero;stroke:none"
         d="M 2420.17,349.52 V 7.18359 h -36.57 c -5.5,0 -10.14,0.94141 -13.92,2.75 -3.77,1.80861 -7.47,4.87501 -11.08,9.28121 L 2188.02,236.273 c 0.47,-5.503 0.86,-10.933 1.1,-16.281 0.23,-5.347 0.31,-10.304 0.31,-14.863 V 7.18359 h -62.52 V 349.52 h 37.28 c 2.99,0 5.58,-0.079 7.7,-0.317 2.13,-0.234 4.02,-0.785 5.74,-1.652 1.73,-0.863 3.39,-2.043 4.96,-3.457 1.57,-1.418 3.3,-3.305 5.19,-5.664 l 171.76,-218 c -0.63,5.976 -1.1,11.797 -1.42,17.383 -0.31,5.578 -0.47,10.847 -0.47,15.882 V 349.52 h 62.52" /><path
         id="path62"
         style="fill:#231f20;fill-opacity:1;fill-rule:nonzero;stroke:none"
         d="m 2657.85,181.535 h 117.49 V 40.2109 c -17.46,-12.7382 -36.02,-22.0195 -55.76,-27.9179 -19.74,-5.89456 -40.66,-8.88675 -62.68,-8.88675 -28.15,0 -53.63,4.40625 -76.44,13.13675 -22.81,8.7265 -42.31,20.8398 -58.51,36.4101 -16.2,15.5703 -28.7,34.0508 -37.52,55.4419 -8.8,21.394 -13.2,44.753 -13.2,70.074 0,25.64 4.24,49.152 12.65,70.543 8.42,21.394 20.37,39.797 35.94,55.207 15.57,15.414 34.45,27.449 56.55,36.097 22.1,8.653 46.79,12.981 74.16,12.981 14.16,0 27.37,-1.106 39.64,-3.383 12.26,-2.281 23.59,-5.43 33.97,-9.441 10.38,-4.008 19.9,-8.805 28.55,-14.313 8.65,-5.504 16.52,-11.558 23.6,-18.164 l -20.53,-31.617 c -3.15,-5.031 -7.24,-8.098 -12.27,-9.199 -5.03,-1.102 -10.54,0.156 -16.52,3.773 -5.66,3.461 -11.17,6.606 -16.59,9.36 -5.43,2.75 -11.25,5.113 -17.38,7.156 -6.14,2.043 -12.82,3.617 -20.05,4.719 -7.24,1.101 -15.57,1.652 -25.01,1.652 -15.89,0 -30.28,-2.754 -43.18,-8.258 -12.9,-5.504 -23.83,-13.293 -32.87,-23.359 -9.05,-10.067 -16.05,-22.176 -20.92,-36.332 -4.88,-14.157 -7.31,-29.965 -7.31,-47.422 0,-18.875 2.67,-35.707 8.02,-50.567 5.34,-14.867 12.89,-27.449 22.65,-37.6715 9.75,-10.2227 21.47,-18.0117 35.07,-23.3555 13.6,-5.3516 28.71,-8.0234 45.38,-8.0234 11.33,0 21.47,1.1797 30.36,3.457 8.88,2.2852 17.53,5.3516 26.03,9.2812 V 129.16 h -38.7 c -4.56,0 -8.1,1.258 -10.69,3.695 -2.6,2.438 -3.93,5.504 -3.93,9.278 v 39.402" /><path
         id="path64"
         style="fill:#231f20;fill-opacity:1;fill-rule:nonzero;stroke:none"
         d="M 2903.77,294.078 V 206.07 h 114.19 V 152.516 H 2903.77 V 62.625 h 146.75 V 7.18359 h -218 V 349.52 h 218 v -55.442 h -146.75" /><path
         id="path66"
         style="fill:#231f20;fill-opacity:1;fill-rule:nonzero;stroke:none"
         d="M 3396.02,349.52 V 7.18359 h -36.57 c -5.5,0 -10.15,0.94141 -13.92,2.75 -3.78,1.80861 -7.47,4.87501 -11.09,9.28121 L 3163.86,236.273 c 0.48,-5.503 0.87,-10.933 1.1,-16.281 0.24,-5.347 0.32,-10.304 0.32,-14.863 V 7.18359 h -62.53 V 349.52 h 37.29 c 2.98,0 5.58,-0.079 7.7,-0.317 2.12,-0.234 4.01,-0.785 5.74,-1.652 1.73,-0.863 3.38,-2.043 4.96,-3.457 1.57,-1.418 3.3,-3.305 5.19,-5.664 l 171.75,-218 c -0.63,5.976 -1.09,11.797 -1.41,17.383 -0.31,5.578 -0.47,10.847 -0.47,15.882 V 349.52 h 62.52" /></g></g></svg>